<svg xmlns="http://www.w3.org/2000/svg" width="55.562" height="49.2" viewBox="0 0 55.562 49.2">
  <g id="add_img" transform="translate(0 -24)">
    <g id="Group_9543" data-name="Group 9543" transform="translate(0 24)">
      <g id="Group_9542" data-name="Group 9542">
        <circle id="Ellipse_306" data-name="Ellipse 306" cx="3.817" cy="3.817" r="3.817" transform="translate(17.125 12.141)" fill="#a6a6a6"/>
        <path id="Path_48032" data-name="Path 48032" d="M52.275,54.008A11.755,11.755,0,0,0,45.7,50.88v-19.4a7.633,7.633,0,0,0-2.174-5.3A7.408,7.408,0,0,0,38.225,24H7.475a7.633,7.633,0,0,0-5.3,2.174A7.408,7.408,0,0,0,0,31.475V63.127a7.633,7.633,0,0,0,2.174,5.3,7.408,7.408,0,0,0,5.3,2.174H37.218A11.217,11.217,0,0,0,52.275,54.008ZM2.81,31.475A4.707,4.707,0,0,1,7.475,26.81h30.75a4.707,4.707,0,0,1,4.666,4.666V48.017l-7.847-7.794a1.424,1.424,0,0,0-2.015,0L21.207,52.1,13.2,44.041a1.424,1.424,0,0,0-2.015,0L2.81,52.523Zm4.613,36.37v-.053a4.652,4.652,0,0,1-3.287-1.378A4.839,4.839,0,0,1,2.81,63.127V56.5l9.437-9.437,8.006,8.006a1.474,1.474,0,0,0,2.015,0L34.09,43.192l7.741,7.794-.477.159a4.924,4.924,0,0,0-.689.212c-.212.053-.424.159-.636.212a1.587,1.587,0,0,0-.424.212,4.927,4.927,0,0,0-.53.265l-.8.477c-.159.106-.265.159-.424.265-.106.053-.159.106-.265.159a6.4,6.4,0,0,0-1.272,1.113,11.216,11.216,0,0,0-3.287,7.953,11.656,11.656,0,0,0,.265,2.333c.053.212.106.371.159.583.159.53.318,1.06.53,1.591v.053a9.725,9.725,0,0,0,.689,1.272Zm42.785.053A8.387,8.387,0,0,1,38.491,68c-.212-.212-.424-.477-.636-.689-.159-.159-.318-.371-.477-.53a5.034,5.034,0,0,1-.53-.9c-.106-.212-.212-.371-.318-.583a4.478,4.478,0,0,1-.265-.9c-.053-.212-.159-.477-.212-.689a8.775,8.775,0,0,1-.159-1.7,8.51,8.51,0,0,1,2.439-5.938,8.287,8.287,0,0,1,5.938-2.439,8.51,8.51,0,0,1,5.938,2.439,8.2,8.2,0,0,1,2.439,5.938A8.479,8.479,0,0,1,50.207,67.9Z" transform="translate(0 -24)" fill="#a6a6a6"/>
        <path id="Path_48033" data-name="Path 48033" d="M298.363,269.066h-3.234v-3.234a1.431,1.431,0,0,0-2.863,0v3.234h-3.234a1.431,1.431,0,1,0,0,2.863h3.234v3.234a1.431,1.431,0,0,0,2.863,0v-3.234h3.234a1.431,1.431,0,1,0,0-2.863Z" transform="translate(-249.481 -232.537)" fill="#a6a6a6"/>
      </g>
    </g>
  </g>
</svg>
