<svg xmlns="http://www.w3.org/2000/svg" width="520.318" height="464" viewBox="0 0 520.318 464">
  <path id="big_shape" d="M190.883,265.039q61.693,63.183,124.056,125.723c12.447,12.537,24.737,25.449,38.508,36.426,24.022,19.149,46.188,41.015,76.537,51.241,41.822,14.083,82.029,11.06,120.581-9.616,12.53-6.72,22.833-17.526,35.211-24.609,14.216-8.14,21.675-21.084,29.222-34.352,9.864-17.354,15.3-36.006,17.959-55.855,4.53-33.893-2.324-65.432-18.519-94.871-15.47-28.115-38.38-48.466-67.38-62.919-28.351-14.128-58.356-16.679-88.419-13.5-30,3.175-56.949,15.96-80.081,36.439-21.523,19.06-36.2,42.154-45.419,69.066-.733,2.138-1.19,4.359-1.941,7.147-7.243-8.356-13.772-16.769-21.229-24.259-9.56-9.6-19.238-19.3-30.082-27.313-6.835-5.046-7.54-8.731-3.831-15.731,21.847-41.2,53.443-73.177,94.019-95.323A226.513,226.513,0,0,1,454.586,106c49.376-5.365,94.9,4.563,138.24,28.675,41.052,22.84,71.4,55.734,93.07,96.411,12.123,22.763,19.225,47.766,22.986,73.769,8.165,56.4-5.651,107.605-34.943,155.162-7.688,12.486-20.523,21.9-27.632,34.619-10.081,18.041-26.283,28.16-42.427,38.4-47.69,30.247-100.039,40.767-155.805,33.174-52.583-7.159-97.614-30.571-136.293-66.463-7.235-6.714-13.047-14.936-20.135-21.828q-50.163-48.8-100.764-97.143Z" transform="translate(-190.883 -104.584)" fill="#fff" opacity="0.05"/>
</svg>
