<svg xmlns="http://www.w3.org/2000/svg" width="20.092" height="20.09" viewBox="0 0 20.092 20.09">
  <g id="globe" transform="translate(0 -0.022)">
    <g id="Group_3224" data-name="Group 3224" transform="translate(0 0.022)">
      <path id="Path_13065" data-name="Path 13065" d="M10.034.022A10.061,10.061,0,0,0,8.956.08a9.483,9.483,0,0,0-.972.155L7.8.276A10.047,10.047,0,0,0,2.842,3.051q-.188.193-.369.4a10.058,10.058,0,0,0,14.754,13.66q.189-.193.369-.4A10.057,10.057,0,0,0,10.034.022ZM3.289,3.554c.053-.055.108-.108.162-.161s.124-.123.188-.182.114-.1.171-.154.129-.115.2-.17.118-.1.178-.144.134-.107.2-.159.123-.091.185-.134.139-.1.21-.147.127-.084.192-.126.144-.091.217-.134l.2-.115q.111-.063.224-.124l.2-.1c.076-.039.154-.076.231-.112s.137-.064.206-.094l.238-.1c.069-.028.138-.056.209-.083s.163-.06.245-.089.14-.049.211-.072.168-.052.252-.076.141-.042.212-.061L7.7.992A8.319,8.319,0,0,0,5.556,4.471a11.26,11.26,0,0,1-2.3-.884Zm-.482.54A11.648,11.648,0,0,0,5.351,5.106a17.4,17.4,0,0,0-.677,4.638H.655A9.367,9.367,0,0,1,2.807,4.094Zm0,11.972A9.368,9.368,0,0,1,.655,10.415h4.02a17.4,17.4,0,0,0,.677,4.638A11.656,11.656,0,0,0,2.807,16.066Zm4.808,3.083c-.068-.017-.138-.039-.208-.06-.085-.025-.17-.05-.254-.077s-.14-.047-.21-.072-.165-.058-.246-.089-.138-.054-.208-.082l-.24-.1q-.1-.045-.2-.093l-.235-.113c-.067-.034-.134-.067-.2-.1s-.151-.082-.226-.125-.131-.075-.2-.114-.146-.09-.219-.136-.127-.082-.19-.124-.142-.1-.212-.149-.123-.088-.183-.134-.137-.106-.205-.161-.118-.094-.176-.143-.132-.114-.2-.171-.114-.1-.17-.152-.126-.122-.188-.183-.109-.106-.162-.161l-.029-.031a11.252,11.252,0,0,1,2.3-.884A8.321,8.321,0,0,0,7.7,19.169ZM9.7,19.44c-1.435-.2-2.692-1.7-3.483-3.912a17.037,17.037,0,0,1,3.483-.41Zm0-4.993a17.655,17.655,0,0,0-3.694.441,16.772,16.772,0,0,1-.66-4.473H9.7v4.033Zm0-4.7H5.345a16.768,16.768,0,0,1,.66-4.473A17.661,17.661,0,0,0,9.7,5.712Zm0-4.7a17.019,17.019,0,0,1-3.483-.41C7.007,2.42,8.264.923,9.7.719Zm7.562-.947a9.368,9.368,0,0,1,2.152,5.651h-4.02a17.4,17.4,0,0,0-.677-4.638A11.66,11.66,0,0,0,17.261,4.094ZM12.45,1.01c.07.017.14.04.21.06.085.025.17.05.254.077s.14.047.21.072.165.058.246.089.138.054.208.082l.24.1q.1.045.2.093l.235.113c.067.034.134.067.2.1s.151.082.226.125.131.075.2.114.146.09.219.136.127.082.19.124.142.1.212.149.123.088.184.134.137.106.2.16.118.094.176.143.132.114.2.171.114.1.17.152.126.122.188.183.109.106.162.161l.029.031a11.252,11.252,0,0,1-2.3.884A8.32,8.32,0,0,0,12.369.99ZM10.369.719c1.435.2,2.692,1.7,3.483,3.912a17.037,17.037,0,0,1-3.483.41Zm0,4.993a17.655,17.655,0,0,0,3.694-.441,16.772,16.772,0,0,1,.66,4.473H10.369Zm0,4.7h4.354a16.768,16.768,0,0,1-.66,4.473h0a17.661,17.661,0,0,0-3.694-.441Zm0,9.025V15.118a17.019,17.019,0,0,1,3.483.41C13.061,17.739,11.8,19.236,10.369,19.44Zm6.41-2.835c-.053.055-.108.107-.162.161s-.125.123-.189.183-.113.1-.17.153-.13.115-.2.171-.118.1-.178.144-.134.107-.2.159-.123.091-.185.134-.139.1-.21.147-.127.084-.192.125-.144.091-.217.134l-.2.115q-.111.063-.224.124l-.2.1c-.076.039-.154.076-.231.112s-.137.064-.206.094l-.238.1c-.069.028-.138.056-.208.083s-.164.06-.246.089-.139.049-.21.072-.168.052-.253.076c-.07.021-.14.042-.211.061l-.081.02a8.319,8.319,0,0,0,2.143-3.479,11.26,11.26,0,0,1,2.3.884Zm.482-.54a11.648,11.648,0,0,0-2.544-1.012,17.4,17.4,0,0,0,.677-4.638h4.02A9.367,9.367,0,0,1,17.261,16.066Z" transform="translate(0 -0.022)" fill="#ff8bbc"/>
    </g>
  </g>
</svg>
