<svg xmlns="http://www.w3.org/2000/svg" width="17.048" height="17.045" viewBox="0 0 17.048 17.045">
  <path id="gray_star" d="M.024,6.434A.469.469,0,0,1,.4,6.119l4.966-.755L7.575.615a.487.487,0,0,1,.849,0l2.211,4.749,4.966.755a.469.469,0,0,1,.265.792L12.25,10.59l.847,5.232a.469.469,0,0,1-.689.486L8,13.869l-4.409,2.44a.469.469,0,0,1-.689-.486l.847-5.232L.133,6.911A.47.47,0,0,1,.024,6.434Z" transform="translate(0.524 0.148)" fill="#fff" stroke="#707070" stroke-width="1.031" opacity="0.99"/>
</svg>
