<svg xmlns="http://www.w3.org/2000/svg" width="135.647" height="64.23" viewBox="0 0 135.647 64.23">
  <g id="logo" transform="translate(-14.517 -85.604)">
    <path id="Path_80545" data-name="Path 80545" d="M233.849,117.834q-5.094,5.217-10.244,10.382a37.888,37.888,0,0,1-3.18,3.008c-1.984,1.581-3.814,3.387-6.32,4.231a12.078,12.078,0,0,1-9.957-.794c-1.035-.555-1.885-1.447-2.908-2.032a6.793,6.793,0,0,1-2.413-2.837,12.709,12.709,0,0,1,5.61-17.642,12.946,12.946,0,0,1,7.3-1.115,11.747,11.747,0,0,1,6.613,3.009,13.109,13.109,0,0,1,3.751,5.7c.06.177.1.36.16.59.6-.69,1.137-1.385,1.753-2a22.337,22.337,0,0,1,2.484-2.255c.564-.417.623-.721.316-1.3a18.931,18.931,0,0,0-26.158-7.711,19.177,19.177,0,0,0-7.685,7.961,18.931,18.931,0,0,0,.987,18.9c.635,1.031,1.695,1.809,2.282,2.859a9.3,9.3,0,0,0,3.5,3.171,18.652,18.652,0,0,0,12.866,2.739,20.322,20.322,0,0,0,11.255-5.488c.6-.554,1.077-1.233,1.663-1.8q4.142-4.03,8.321-8.022Z" transform="translate(-83.685 -9.006)" fill="#2d489c"/>
    <g id="Group_43785" data-name="Group 43785" transform="translate(14.517 97.31)">
      <path id="Path_80546" data-name="Path 80546" d="M50.12,150.322a22.327,22.327,0,0,1-2.484-2.255c-.616-.618-1.155-1.314-1.754-2-.061.23-.1.414-.16.59a13.1,13.1,0,0,1-3.751,5.7,11.749,11.749,0,0,1-6.613,3.01,12.948,12.948,0,0,1-7.3-1.115,12.47,12.47,0,0,1-5.563-5.2,12.672,12.672,0,0,1-1.636-5.819H14.517a19.619,19.619,0,0,0,2.076,8.135,19.177,19.177,0,0,0,7.685,7.961,18.989,18.989,0,0,0,26.158-7.711C50.742,151.044,50.684,150.739,50.12,150.322Z" transform="translate(-14.517 -124.656)" fill="#2d489c"/>
      <path id="Path_80547" data-name="Path 80547" d="M50.12,119.374a22.332,22.332,0,0,0-2.484,2.255c-.616.619-1.155,1.314-1.754,2-.061-.23-.1-.414-.16-.59a13.1,13.1,0,0,0-3.751-5.7,11.746,11.746,0,0,0-6.613-3.01,12.948,12.948,0,0,0-7.3,1.115,12.469,12.469,0,0,0-5.563,5.2,12.672,12.672,0,0,0-1.636,5.819H14.517a19.619,19.619,0,0,1,2.076-8.135,19.182,19.182,0,0,1,7.685-7.961,18.989,18.989,0,0,1,26.158,7.712C50.742,118.653,50.684,118.957,50.12,119.374Z" transform="translate(-14.517 -107.879)" fill="#2d489c"/>
    </g>
    <path id="Path_80548" data-name="Path 80548" d="M161.58,126.521q-2.541-2.521-5.061-5.064c-1.464-1.482-2.9-2.992-4.351-4.485-.231-.237-.455-.4-.792-.078-1.385,1.341-2.792,2.659-4.175,3.97,4.406,5.277,4.589,13.94-1.778,18.4a13.021,13.021,0,0,1-9.723,2.482,13.3,13.3,0,0,1-8.346-4.91c-2.291-2.766-2.777-6.21-2.192-9.72a10.861,10.861,0,0,1,3.011-6.131l-4.348-4.816c-.812,1.175-1.613,2.333-2.413,3.492a17.515,17.515,0,0,0-2.4,5.909c-.06.244-.164.478-.247.716-.148-.071-.312-.126-.464-.191a8.062,8.062,0,0,1,.3,1.83,6.864,6.864,0,0,1-2.61,5.527c1.156,1.177,2.316,2.351,3.465,3.535.944.974,1.667,2.159,2.544,3.2,1.186,1.414,2.016,3.1,3.565,4.242,6.651,4.912,13.709,5.708,21.147,2.077a13.439,13.439,0,0,0,5.215-4.406,25.216,25.216,0,0,0,3.838-6.827c.414-1.313.676-2.674,1.036-4.126a3.261,3.261,0,0,1,.651.373q1.315,1.228,2.623,2.462A7.147,7.147,0,0,1,161.58,126.521Z" transform="translate(-48.151 -14.501)" fill="#2d489c"/>
    <path id="Path_80549" data-name="Path 80549" d="M102,123.775c-1.055-6.159-4.667-10.462-9.925-13.551A18.136,18.136,0,0,0,86.8,108.3a31.611,31.611,0,0,0-3.68-.405v6.823c1.309.262,2.579.429,3.8.778a10.57,10.57,0,0,1,5.762,3.828,15.082,15.082,0,0,1,2.616,6.243,11.2,11.2,0,0,1,.418,2.673,13.325,13.325,0,0,1-1.587,5.343,11.838,11.838,0,0,1-5.857,5.362,13.261,13.261,0,0,1-7.776.827c-.262-.041-.52-.1-.777-.157v6.41c.5.093,1.011.174,1.53.228a18.624,18.624,0,0,0,16.767-7.26c2.9-3.577,3.922-7.807,4.248-12.262A12.424,12.424,0,0,0,102,123.775Z" transform="translate(-30.938 -10.577)" fill="#2d489c"/>
    <g id="Group_43786" data-name="Group 43786" transform="translate(24.737 136.284)">
      <path id="Path_80550" data-name="Path 80550" d="M37.566,188.349c-1.361,1.014-2.666,2.718-2.572,4.421a4.382,4.382,0,0,0,1.627,3.2,4.55,4.55,0,0,0,6.609-.831,4.4,4.4,0,0,0,.708-3.838,4.484,4.484,0,0,0-2.525-2.991,4.168,4.168,0,0,1,.543-.879c.236.141.477.267.7.42a5.45,5.45,0,0,1,2.381,3.723,5.57,5.57,0,1,1-9.515-2.955c.11-.112.761-.636.88-.74.022-.019,1.332-.682,1.358-.672.322.134-.122.674.2.812C38.633,187.673,37.557,188.342,37.566,188.349Z" transform="translate(-33.965 -184.496)" fill="#ff8bbc"/>
      <path id="Path_80551" data-name="Path 80551" d="M48.516,191.794l-.533.86c-.046-.019-.07-.026-.091-.037a5.438,5.438,0,0,1-3.015-4.09,5.538,5.538,0,0,1,3.848-6.227,5.312,5.312,0,0,1,3.4.052.118.118,0,0,1,.091.117c.036.328.078.656.118.984a.405.405,0,0,1,0,.051,4.524,4.524,0,0,0-4.133.111,4.409,4.409,0,0,0-2.09,2.375A4.571,4.571,0,0,0,48.516,191.794Z" transform="translate(-39.106 -182.045)" fill="#ff8bbc"/>
      <path id="Path_80552" data-name="Path 80552" d="M54.172,193.455c.138-.277.284-.539.4-.813a.244.244,0,0,1,.275-.176,4.51,4.51,0,0,0,4.445-3.713,5.038,5.038,0,0,0-.189-2.439,5.732,5.732,0,0,0-1.644-2.113,2.831,2.831,0,0,0-.7-.418c-.071-.038-.1-.1-.135-.12a.6.6,0,0,1-.147-.215c-.06-.155-.077-.393.039-.48.067-.051.14-.02.171-.073.047-.078-.084-.2-.064-.228a5.115,5.115,0,0,1,2.772,2.064,5.588,5.588,0,0,1,.76,1.573,5.358,5.358,0,0,1,.2,2.3,5.583,5.583,0,0,1-5.75,4.884C54.455,193.481,54.314,193.465,54.172,193.455Z" transform="translate(-43.553 -182.336)" fill="#ff8bbc"/>
      <path id="Path_80553" data-name="Path 80553" d="M40.817,188.067c.044-.365.085-.72.131-1.076a.106.106,0,0,1,.063-.064,5.109,5.109,0,0,1,1.325-.293,5.273,5.273,0,0,1,1.1.02c-.1.192-.2.378-.3.567-.058.116-.1.238-.16.354a.107.107,0,0,1-.077.055,4.548,4.548,0,0,0-2.048.43A.217.217,0,0,1,40.817,188.067Z" transform="translate(-37.216 -184.214)" fill="#ff8bbc"/>
    </g>
    <g id="Group_43787" data-name="Group 43787" transform="translate(88.952 95.763)">
      <path id="Path_80554" data-name="Path 80554" d="M156.163,104.957l.12-.021,1.622,8.852-.12.022-1.622-8.853Z" transform="translate(-156.163 -104.936)" fill="#e60e88"/>
    </g>
    <g id="Group_43788" data-name="Group 43788" transform="translate(88.652 96.817)">
      <path id="Path_80555" data-name="Path 80555" d="M155.591,106.964l.119-.022,1.429,7.8-.119.022-1.429-7.8Z" transform="translate(-155.591 -106.942)" fill="#e60e88"/>
    </g>
    <g id="Group_43789" data-name="Group 43789" transform="translate(88.334 97.78)">
      <path id="Path_80556" data-name="Path 80556" d="M154.986,108.8l.12-.022,1.252,6.835-.12.022-1.253-6.836Z" transform="translate(-154.986 -108.774)" fill="#e60e88"/>
    </g>
    <g id="Group_43790" data-name="Group 43790" transform="translate(88.003 98.668)">
      <path id="Path_80557" data-name="Path 80557" d="M154.357,110.486l.12-.022,1.09,5.948-.119.022-1.09-5.947Z" transform="translate(-154.357 -110.464)" fill="#e60e88"/>
    </g>
    <g id="Group_43791" data-name="Group 43791" transform="translate(85.178 85.604)">
      <path id="Path_80558" data-name="Path 80558" d="M154.529,100.414l-.2.089c5.212,7.935,1.428,8.783-.456,8.8-4.814.028-2.586-8.86-.818-13.241,2.8-6.933-1.122-10.454-1.122-10.454l-2.949,3.229s5.834,3.117,2.577,10.218c-6.888,15.015,2.575,13.344,5.16,9.558,1.748-2.56-2.188-8.195-2.188-8.195" transform="translate(-148.98 -85.604)" fill="#ff8bbc"/>
    </g>
    <g id="Group_43792" data-name="Group 43792" transform="translate(88.374 104.208)">
      <path id="Path_80559" data-name="Path 80559" d="M156.316,124.2a1.619,1.619,0,1,0-1.212-1.943,1.619,1.619,0,0,0,1.212,1.943" transform="translate(-155.062 -121.006)" fill="#ff8bbc"/>
    </g>
    <g id="Group_43793" data-name="Group 43793" transform="translate(89.529 98.596)">
      <path id="Path_80560" data-name="Path 80560" d="M158.541,112.274l-1.28-1.947.049.462,1.087,1.664" transform="translate(-157.261 -110.327)" fill="#e60e88"/>
    </g>
  </g>
</svg>
