<svg xmlns="http://www.w3.org/2000/svg" width="38.298" height="34.073" viewBox="0 0 38.298 34.073">
  <path id="pink_fav" d="M35.26,3.334A10.3,10.3,0,0,0,27.6,0a9.635,9.635,0,0,0-6.018,2.077,12.312,12.312,0,0,0-2.433,2.54,12.3,12.3,0,0,0-2.433-2.54A9.633,9.633,0,0,0,10.7,0,10.3,10.3,0,0,0,3.038,3.334,11.971,11.971,0,0,0,0,11.51c0,3.239,1.207,6.2,3.8,9.331a81,81,0,0,0,9.508,8.925c1.317,1.123,2.811,2.4,4.362,3.751a2.248,2.248,0,0,0,2.96,0c1.551-1.356,3.045-2.629,4.363-3.753A80.953,80.953,0,0,0,34.5,20.84c2.591-3.127,3.8-6.092,3.8-9.331A11.97,11.97,0,0,0,35.26,3.334Zm0,0" transform="translate(0)" fill="#ff8bbc"/>
</svg>
