<svg xmlns="http://www.w3.org/2000/svg" width="48.705" height="48.705" viewBox="0 0 48.705 48.705">
  <g id="snapchat" transform="translate(-249 -4236)">
    <g id="Ellipse_461" data-name="Ellipse 461" transform="translate(261.997 4236) rotate(20)" fill="none" stroke="#fff" stroke-width="1" stroke-dasharray="16 13">
      <circle cx="19" cy="19" r="19" stroke="none"/>
      <circle cx="19" cy="19" r="18.5" fill="none"/>
    </g>
    <path id="snapchat_1_" data-name="snapchat (1)" d="M2.258,14.258c.193.85.4,1.2,1.516,1.019A3.547,3.547,0,0,1,5,15.238c.827.137,3.015,2.924,6.125.466a2.158,2.158,0,0,1,2.117-.429c.514.1,1.174-.006,1.5-1.017,3.074-.553,2.413-2.248,1.493-2.4a3.951,3.951,0,0,1-2.776-2.441,3.315,3.315,0,0,1,.516-.209c2.6-.9,1.151-3.084-.614-2.41C13.474,4.96,13.507,3.485,12,2.07a5.456,5.456,0,0,0-5.692-.859C3.492,2.443,3.514,4.828,3.64,6.83a1.382,1.382,0,0,0-2.007.823c-.186,1,.769,1.335,1.339,1.536a5.409,5.409,0,0,1,.582.225,3.758,3.758,0,0,1-2.533,2.36c-.4.134-.786.261-.951.63a.887.887,0,0,0,.026.736c.285.663,1.213.948,2.163,1.118ZM4.464,10c.468-.942-.146-1.456-1.139-1.806-.21-.074-.6-.211-.65-.337a.386.386,0,0,1,.29-.134A1.507,1.507,0,0,1,3.2,7.8C6.56,9.069,2.6,3.99,6.735,2.182a4.414,4.414,0,0,1,4.54.661c2.005,1.881.428,4.628,1.3,5.024.619.281,1.211-.152,1.425-.158a.449.449,0,0,1,.327.135c0,.125-.436.277-.7.368-1.211.419-1.59.92-.9,2.169a5.117,5.117,0,0,0,3.055,2.47c-1.015.587-1.786.07-2.011.957-.116.471-.191.455-.319.43-3.589-.7-3.343,3.025-6.991.589-1.245-.831-1.488-.742-3.106-.555a3.791,3.791,0,0,0-.206-.73c-.256-.473-1.2-.234-1.944-.709A4.731,4.731,0,0,0,4.464,10Z" transform="translate(264.999 4251.225)" fill="#fff"/>
  </g>
</svg>
