<svg xmlns="http://www.w3.org/2000/svg" width="48.705" height="48.705" viewBox="0 0 48.705 48.705">
  <g id="twitter" transform="translate(-377 -4236)">
    <g id="Ellipse_459" data-name="Ellipse 459" transform="translate(389.997 4236) rotate(20)" fill="none" stroke="#fff" stroke-width="1" stroke-dasharray="16 13">
      <circle cx="19" cy="19" r="19" stroke="none"/>
      <circle cx="19" cy="19" r="18.5" fill="none"/>
    </g>
    <g id="Group_3189" data-name="Group 3189" transform="translate(367.897 4219.972)">
      <path id="Path_12958" data-name="Path 12958" d="M41.065,35.564a6.534,6.534,0,0,1-1.881.515,3.284,3.284,0,0,0,1.44-1.811,6.556,6.556,0,0,1-2.08.794,3.278,3.278,0,0,0-5.581,2.987,9.3,9.3,0,0,1-6.75-3.422A3.278,3.278,0,0,0,27.227,39a3.252,3.252,0,0,1-1.483-.41c0,.014,0,.028,0,.042a3.277,3.277,0,0,0,2.627,3.211,3.288,3.288,0,0,1-1.479.057,3.278,3.278,0,0,0,3.059,2.274A6.611,6.611,0,0,1,25.1,45.529,9.313,9.313,0,0,0,39.44,37.682c0-.142,0-.283-.01-.423a6.641,6.641,0,0,0,1.634-1.695Z" fill="#f1f2f2"/>
    </g>
  </g>
</svg>
