<svg xmlns="http://www.w3.org/2000/svg" width="18.52" height="22" viewBox="0 0 18.52 22">
  <g id="user" transform="translate(0.5 0.5)">
    <path id="Path_1540" data-name="Path 1540" d="M92.09,10.116a4.894,4.894,0,0,0,3.576-1.482,4.894,4.894,0,0,0,1.482-3.576,4.895,4.895,0,0,0-1.482-3.576,5.057,5.057,0,0,0-7.152,0,4.894,4.894,0,0,0-1.482,3.576,4.894,4.894,0,0,0,1.482,3.576A4.9,4.9,0,0,0,92.09,10.116ZM89.384,2.352a3.826,3.826,0,0,1,5.412,0,3.657,3.657,0,0,1,1.121,2.706A3.657,3.657,0,0,1,94.8,7.764a3.826,3.826,0,0,1-5.412,0,3.656,3.656,0,0,1-1.122-2.706,3.656,3.656,0,0,1,1.122-2.706Zm0,0" transform="translate(-83.462 0)" stroke="#000" stroke-width="1"/>
    <path id="Path_1541" data-name="Path 1541" d="M17.478,253.32a12.493,12.493,0,0,0-.17-1.327,10.455,10.455,0,0,0-.326-1.334,6.59,6.59,0,0,0-.549-1.244,4.691,4.691,0,0,0-.827-1.078,3.646,3.646,0,0,0-1.188-.746,4.106,4.106,0,0,0-1.517-.274,1.539,1.539,0,0,0-.822.349c-.246.161-.535.347-.856.552a4.906,4.906,0,0,1-1.108.488,4.3,4.3,0,0,1-2.711,0,4.893,4.893,0,0,1-1.107-.488c-.319-.2-.607-.389-.857-.552a1.538,1.538,0,0,0-.822-.349,4.1,4.1,0,0,0-1.516.275,3.643,3.643,0,0,0-1.188.746,4.691,4.691,0,0,0-.827,1.078,6.6,6.6,0,0,0-.548,1.244,10.481,10.481,0,0,0-.326,1.334,12.409,12.409,0,0,0-.17,1.327c-.028.4-.042.818-.042,1.24A3.487,3.487,0,0,0,1.035,257.2a3.728,3.728,0,0,0,2.669.973H13.816a3.728,3.728,0,0,0,2.669-.973,3.486,3.486,0,0,0,1.036-2.638c0-.423-.014-.84-.042-1.24Zm-1.842,2.987a2.51,2.51,0,0,1-1.82.634H3.7a2.51,2.51,0,0,1-1.82-.634,2.277,2.277,0,0,1-.654-1.747c0-.393.013-.782.039-1.155a11.192,11.192,0,0,1,.154-1.2,9.242,9.242,0,0,1,.287-1.176,5.376,5.376,0,0,1,.446-1.012,3.478,3.478,0,0,1,.608-.8,2.419,2.419,0,0,1,.79-.491,2.831,2.831,0,0,1,.969-.187c.043.023.12.067.244.148.253.165.545.353.867.559a6.1,6.1,0,0,0,1.391.621,5.532,5.532,0,0,0,3.468,0,6.1,6.1,0,0,0,1.392-.622c.33-.211.613-.393.866-.559.124-.081.2-.125.244-.148a2.833,2.833,0,0,1,.969.187,2.423,2.423,0,0,1,.79.491,3.468,3.468,0,0,1,.608.8,5.358,5.358,0,0,1,.447,1.011,9.221,9.221,0,0,1,.287,1.176,11.287,11.287,0,0,1,.154,1.2h0c.026.372.039.76.039,1.155a2.277,2.277,0,0,1-.654,1.747Zm0,0" transform="translate(0 -237.172)" stroke="#000" stroke-width="1"/>
  </g>
</svg>
