<svg xmlns="http://www.w3.org/2000/svg" width="42.966" height="38.316" viewBox="0 0 42.966 38.316">
  <path id="vector" d="M233.849,117.834q-5.094,5.217-10.244,10.382a37.888,37.888,0,0,1-3.18,3.008c-1.984,1.581-3.814,3.387-6.32,4.231a12.078,12.078,0,0,1-9.957-.794c-1.035-.555-1.885-1.447-2.908-2.032a6.793,6.793,0,0,1-2.413-2.837,12.709,12.709,0,0,1,5.61-17.642,12.946,12.946,0,0,1,7.3-1.115,11.747,11.747,0,0,1,6.613,3.009,13.109,13.109,0,0,1,3.751,5.7c.06.177.1.36.16.59.6-.69,1.137-1.385,1.753-2a22.337,22.337,0,0,1,2.484-2.255c.564-.417.623-.721.316-1.3a18.931,18.931,0,0,0-26.158-7.711,19.177,19.177,0,0,0-7.685,7.961,18.931,18.931,0,0,0,.987,18.9c.635,1.031,1.695,1.809,2.282,2.859a9.3,9.3,0,0,0,3.5,3.171,18.652,18.652,0,0,0,12.866,2.739,20.322,20.322,0,0,0,11.255-5.488c.6-.554,1.077-1.233,1.663-1.8q4.142-4.03,8.321-8.022Z" transform="translate(-190.883 -104.584)" fill="#2d489c"/>
</svg>
