<svg xmlns="http://www.w3.org/2000/svg" width="26.883" height="27" viewBox="0 0 26.883 27">
  <g id="whatsapp" transform="translate(0 0.001)">
    <path id="Path_79797" data-name="Path 79797" d="M.575,27a.575.575,0,0,1-.554-.726l1.755-6.41A13.388,13.388,0,1,1,13.5,26.778H13.49A13.415,13.415,0,0,1,7.3,25.257L.72,26.981A.578.578,0,0,1,.575,27Zm0,0" transform="translate(0)" fill="#e5e5e5"/>
    <path id="Path_79798" data-name="Path 79798" d="M10.894,36.746l1.818-6.638a12.814,12.814,0,1,1,11.1,6.416H23.81a12.8,12.8,0,0,1-6.123-1.559ZM18,32.646l.389.231a10.635,10.635,0,0,0,5.421,1.484h0a10.649,10.649,0,1,0-9.022-4.99l.253.4L13.971,33.7Zm0,0" transform="translate(-10.32 -10.321)" fill="#fff"/>
    <path id="Path_79799" data-name="Path 79799" d="M19.344,44.339,21.1,37.931a12.37,12.37,0,1,1,10.719,6.194h-.006a12.367,12.367,0,0,1-5.911-1.5Zm0,0" transform="translate(-18.324 -18.361)" fill="#64b161"/>
    <g id="Group_43592" data-name="Group 43592" transform="translate(0.575 0.574)">
      <path id="Path_79800" data-name="Path 79800" d="M10.894,36.746l1.818-6.638a12.814,12.814,0,1,1,11.1,6.416H23.81a12.8,12.8,0,0,1-6.123-1.559ZM18,32.646l.389.231a10.635,10.635,0,0,0,5.421,1.484h0a10.649,10.649,0,1,0-9.022-4.99l.253.4L13.971,33.7Zm0,0" transform="translate(-10.894 -10.895)" fill="#fff"/>
      <path id="Path_79801" data-name="Path 79801" d="M135.754,142.174c-.24-.533-.492-.544-.721-.553-.187-.008-.4-.008-.613-.008a1.177,1.177,0,0,0-.854.4,3.589,3.589,0,0,0-1.121,2.67A6.227,6.227,0,0,0,133.753,148c.16.214,2.215,3.549,5.469,4.833,2.7,1.067,3.255.854,3.842.8a3.233,3.233,0,0,0,2.161-1.522,2.673,2.673,0,0,0,.187-1.522c-.08-.133-.294-.213-.614-.373s-1.894-.935-2.188-1.042-.507-.16-.72.16-.827,1.041-1.013,1.255-.374.241-.694.081a8.754,8.754,0,0,1-2.575-1.589,9.646,9.646,0,0,1-1.781-2.217c-.187-.32,0-.478.141-.653a9.658,9.658,0,0,0,.8-1.095.59.59,0,0,0-.027-.561C136.661,144.39,136.039,142.807,135.754,142.174Zm0,0" transform="translate(-126.036 -134.72)" fill="#fff" fill-rule="evenodd"/>
    </g>
  </g>
</svg>
