<svg xmlns="http://www.w3.org/2000/svg" width="38.16" height="34.06" viewBox="0 0 38.16 34.06">
  <path id="white_fav" d="M18.58,33.06a2.179,2.179,0,0,1-1.437-.54c-1.5-1.313-2.948-2.546-4.225-3.634l-.007-.006a78.582,78.582,0,0,1-9.226-8.659C1.171,17.187,0,14.31,0,11.168A11.614,11.614,0,0,1,2.948,3.235,9.992,9.992,0,0,1,10.381,0a9.347,9.347,0,0,1,5.839,2.015A11.945,11.945,0,0,1,18.58,4.48a11.947,11.947,0,0,1,2.361-2.465A9.347,9.347,0,0,1,26.779,0a9.993,9.993,0,0,1,7.433,3.235,11.614,11.614,0,0,1,2.948,7.932c0,3.143-1.171,6.019-3.685,9.053a78.574,78.574,0,0,1-9.225,8.659c-1.279,1.09-2.729,2.325-4.233,3.641a2.181,2.181,0,0,1-1.436.539Zm-8.2-30.883A7.84,7.84,0,0,0,4.548,4.711a9.448,9.448,0,0,0-2.372,6.457c0,2.643.982,5.007,3.185,7.665a77.33,77.33,0,0,0,8.962,8.392l.007.006c1.282,1.092,2.735,2.331,4.247,3.653,1.521-1.325,2.977-2.565,4.261-3.659A77.35,77.35,0,0,0,31.8,18.832c2.2-2.658,3.185-5.021,3.185-7.665a9.448,9.448,0,0,0-2.372-6.457,7.839,7.839,0,0,0-5.833-2.534,7.219,7.219,0,0,0-4.507,1.56A10.563,10.563,0,0,0,19.76,6.644a1.374,1.374,0,0,1-2.36,0,10.553,10.553,0,0,0-2.512-2.906,7.219,7.219,0,0,0-4.507-1.56Zm0,0" transform="translate(0.5 0.5)" fill="#fff" stroke="#fff" stroke-width="1"/>
</svg>
