<svg xmlns="http://www.w3.org/2000/svg" width="48.705" height="48.705" viewBox="0 0 48.705 48.705">
  <g id="youtube" transform="translate(-313 -4236)">
    <g id="Ellipse_460" data-name="Ellipse 460" transform="translate(325.997 4236) rotate(20)" fill="none" stroke="#fff" stroke-width="1" stroke-dasharray="16 13">
      <circle cx="19" cy="19" r="19" stroke="none"/>
      <circle cx="19" cy="19" r="18.5" fill="none"/>
    </g>
    <g id="youtube_1_" data-name="youtube (1)" transform="translate(329.001 4254)">
      <path id="Path_12959" data-name="Path 12959" d="M195.443,108.538l-3.536-1.935a.649.649,0,0,0-.961.57v3.836a.648.648,0,0,0,.957.572l3.536-1.9a.649.649,0,0,0,0-1.142Zm-3.559,1.989V107.66l2.643,1.446Zm0,0" transform="translate(-184.978 -103.194)" fill="#fff"/>
      <path id="Path_12960" data-name="Path 12960" d="M15.886,2.861V2.854A3.66,3.66,0,0,0,15.18,1,2.6,2.6,0,0,0,13.455.187l-.079-.01-.028,0C11.232.021,8.036,0,8,0H8C7.967,0,4.771.021,2.636.175l-.028,0L2.533.187a2.539,2.539,0,0,0-1.715.834,3.836,3.836,0,0,0-.7,1.824l0,.016C.112,2.915,0,4.191,0,5.472v1.2C0,7.95.112,9.227.117,9.28v.008a3.624,3.624,0,0,0,.7,1.835,2.658,2.658,0,0,0,1.783.8c.065.007.121.014.159.021l.037.005c1.222.116,5.052.174,5.214.176h.01c.032,0,3.227-.021,5.343-.175l.028,0,.09-.01a2.48,2.48,0,0,0,1.7-.813,3.835,3.835,0,0,0,.7-1.824l0-.016c0-.054.118-1.33.118-2.611v-1.2c0-1.281-.113-2.557-.118-2.611Zm-.82,3.808c0,1.186-.1,2.407-.113,2.519a2.978,2.978,0,0,1-.46,1.3A1.542,1.542,0,0,1,13.385,11l-.1.011c-2.046.148-5.121.171-5.263.172-.159,0-3.933-.06-5.118-.17-.061-.01-.126-.017-.2-.025a1.754,1.754,0,0,1-1.2-.5L1.5,10.478a2.7,2.7,0,0,1-.451-1.286C1.043,9.107.937,7.872.937,6.669v-1.2c0-1.184.1-2.4.113-2.519a2.917,2.917,0,0,1,.46-1.3,1.618,1.618,0,0,1,1.13-.535l.076-.009C4.793.961,7.89.939,8,.938s3.207.023,5.265.172l.083.01a1.679,1.679,0,0,1,1.149.52l0,0a2.745,2.745,0,0,1,.451,1.305c.007.08.114,1.318.114,2.523Zm0,0" fill="#fff"/>
    </g>
  </g>
</svg>
